<svg width="28" height="28" viewBox="0 0 28 28" fill="none" xmlns="http://www.w3.org/2000/svg">
<path d="M17.5003 16.3333C14.3853 16.3333 8.16699 17.885 8.16699 21V23.3333H26.8337V21C26.8337 17.885 20.6153 16.3333 17.5003 16.3333ZM7.00033 11.6667V8.16666H4.66699V11.6667H1.16699V14H4.66699V17.5H7.00033V14H10.5003V11.6667M17.5003 14C18.738 14 19.925 13.5083 20.8002 12.6332C21.6753 11.758 22.167 10.571 22.167 9.33332C22.167 8.09565 21.6753 6.90866 20.8002 6.03349C19.925 5.15832 18.738 4.66666 17.5003 4.66666C16.2626 4.66666 15.0757 5.15832 14.2005 6.03349C13.3253 6.90866 12.8337 8.09565 12.8337 9.33332C12.8337 10.571 13.3253 11.758 14.2005 12.6332C15.0757 13.5083 16.2626 14 17.5003 14Z" fill="black"/>
</svg>
