<svg width="102" height="102" viewBox="0 0 102 102" fill="none" xmlns="http://www.w3.org/2000/svg">
<path d="M50.5 92.5H33.5C31.2457 92.5 29.0837 91.6045 27.4896 90.0104C25.8955 88.4163 25 86.2543 25 84V24.5C25 22.2457 25.8955 20.0837 27.4896 18.4896C29.0837 16.8955 31.2457 16 33.5 16H67.5C69.7543 16 71.9163 16.8955 73.5104 18.4896C75.1045 20.0837 76 22.2457 76 24.5V52.125M46.25 22H54.75M50.5 75.5V75.5425M80.2542 92.5C77.9999 92.5 75.8379 91.6045 74.2438 90.0104C72.6498 88.4163 71.7542 86.2543 71.7542 84C71.7542 81.7457 72.6498 79.5837 74.2438 77.9896C75.8379 76.3955 77.9999 75.5 80.2542 75.5M80.2542 92.5C82.5086 92.5 84.6706 91.6045 86.2647 90.0104C87.8587 88.4163 88.7542 86.2543 88.7542 84C88.7542 81.7457 87.8587 79.5837 86.2647 77.9896C84.6706 76.3955 82.5086 75.5 80.2542 75.5M80.2542 92.5V98.875M80.2542 75.5V69.125M93.136 76.5625L87.6152 79.75M72.8975 88.25L67.3725 91.4375M67.3725 76.5625L72.8975 79.75M87.6152 88.25L93.1403 91.4375" stroke="#754BA1" stroke-width="5" stroke-linecap="round" stroke-linejoin="round"/>
</svg>
