<svg width="86" height="86" viewBox="0 0 86 86" fill="none" xmlns="http://www.w3.org/2000/svg">
<path d="M24.775 55.15L32.2351 32.7697C32.4224 32.2112 32.7804 31.7256 33.2586 31.3816C33.7367 31.0376 34.3109 30.8525 34.9 30.8525C35.4891 30.8525 36.0633 31.0376 36.5414 31.3816C37.0196 31.7256 37.3776 32.2112 37.5649 32.7697L45.025 55.15M28.825 47.05H40.975M57.175 30.85V55.15M26.8 2.5V10.6M59.2 2.5V10.6M43 2.5V10.6M26.8 75.4V83.5M43 75.4V83.5M59.2 75.4V83.5M83.5 59.2H75.4M10.6 26.8H2.5M10.6 59.2H2.5M10.6 43H2.5M83.5 26.8H75.4M83.5 43H75.4" stroke="#754BA1" stroke-width="5" stroke-linecap="round" stroke-linejoin="round"/>
</svg>
