<svg width="73" height="80" viewBox="0 0 73 80" fill="none" xmlns="http://www.w3.org/2000/svg">
<path fill-rule="evenodd" clip-rule="evenodd" d="M12.3395 4.34208C18.6543 1.60615 27.1313 0 36.3042 0C45.4772 0 53.9541 1.60615 60.2689 4.34208C63.421 5.70917 66.1941 7.42688 68.2306 9.51469C70.2423 11.5759 71.6837 14.172 71.7422 17.1824L71.767 17.4533C71.7929 17.7308 71.8266 18.1327 71.8679 18.6593C71.9511 19.7111 72.0609 21.2518 72.1689 23.2263C72.3637 26.7059 72.555 31.5385 72.5975 37.4248C72.6034 37.5074 72.6063 37.5907 72.6063 37.6745C72.6063 37.7925 72.6046 37.91 72.601 38.0269C72.6046 38.6219 72.6063 39.2275 72.6063 39.8438C72.6063 46.8315 72.3885 52.5158 72.1707 56.4613C72.0642 58.3874 71.9296 60.3119 71.767 62.2342L71.7546 62.3776L71.7422 62.5051C71.6855 65.5155 70.2423 68.1116 68.2306 70.1728C66.1941 72.2606 63.4192 73.9801 60.2689 75.3437C53.9541 78.0831 45.4772 79.6875 36.3042 79.6875C27.1313 79.6875 18.6543 78.0814 12.3395 75.3454C9.18747 73.9783 6.41434 72.2606 4.37788 70.1728C2.36622 68.1116 0.924757 65.5155 0.86632 62.5051L0.841528 62.2342L0.740591 61.0282C0.657362 59.9764 0.54757 58.4357 0.439549 56.463C0.108385 50.3234 -0.0357093 44.1752 0.00746586 38.0269L0.00215332 37.6745C0.00215332 37.5918 0.00510491 37.5086 0.0110077 37.4248C0.0535077 31.5385 0.246528 26.7059 0.439549 23.2263C0.54546 21.3001 0.679468 19.3756 0.841528 17.4533L0.86632 17.1824C0.924757 14.172 2.36622 11.5759 4.37788 9.51469C6.41434 7.42688 9.18924 5.7074 12.3395 4.34385M65.098 23.6176C65.2892 27.0778 65.4823 31.9405 65.5177 37.8905C65.3973 40.2564 63.2616 42.9197 57.5401 45.1474C51.9354 47.3326 44.2163 48.4978 36.3042 48.4978C28.3922 48.4978 20.6713 47.3326 15.0666 45.1474C9.35215 42.9197 7.21476 40.2599 7.0908 37.8958C7.12622 31.9458 7.32101 27.0796 7.51049 23.6176L7.51226 23.5875C13.0656 27.9969 23.8748 30.9896 36.3042 30.9896C48.7319 30.9896 59.5447 27.9969 65.0962 23.5875L65.098 23.6176ZM7.51049 56.0699C7.40424 54.1609 7.29799 51.827 7.22007 49.1176C8.88825 50.1646 10.6552 51.0454 12.4954 51.7473C19.1767 54.3504 27.8361 55.5812 36.3042 55.5812C44.7724 55.5812 53.4335 54.3522 60.1131 51.7473C61.9539 51.0455 63.7214 50.1647 65.3902 49.1176C65.3225 51.4362 65.2251 53.7538 65.098 56.0699C65.0661 56.6401 65.0573 57.244 65.0484 57.862C65.013 60.4793 64.9705 63.371 63.1607 65.2269C61.9689 66.4488 60.0724 67.7096 57.4515 68.8465C52.2205 71.1131 44.7458 72.6042 36.3042 72.6042C27.8627 72.6042 20.388 71.1131 15.1569 68.8465C12.5361 67.7096 10.6395 66.447 9.44778 65.2269C7.63799 63.371 7.59726 60.4775 7.56007 57.8602C7.55122 57.244 7.54236 56.6401 7.51049 56.0717M14.1688 39.8438C15.1081 39.8438 16.009 39.4706 16.6732 38.8064C17.3373 38.1422 17.7105 37.2414 17.7105 36.3021C17.7105 35.3628 17.3373 34.4619 16.6732 33.7977C16.009 33.1336 15.1081 32.7604 14.1688 32.7604C13.2295 32.7604 12.3287 33.1336 11.6645 33.7977C11.0003 34.4619 10.6272 35.3628 10.6272 36.3021C10.6272 37.2414 11.0003 38.1422 11.6645 38.8064C12.3287 39.4706 13.2295 39.8438 14.1688 39.8438ZM29.2209 39.401C29.2209 40.3404 28.8478 41.2412 28.1836 41.9054C27.5194 42.5696 26.6185 42.9427 25.6792 42.9427C24.7399 42.9427 23.8391 42.5696 23.1749 41.9054C22.5107 41.2412 22.1376 40.3404 22.1376 39.401C22.1376 38.4617 22.5107 37.5609 23.1749 36.8967C23.8391 36.2325 24.7399 35.8594 25.6792 35.8594C26.6185 35.8594 27.5194 36.2325 28.1836 36.8967C28.8478 37.5609 29.2209 38.4617 29.2209 39.401ZM29.2209 64.1927C29.2209 65.132 28.8478 66.0329 28.1836 66.6971C27.5194 67.3612 26.6185 67.7344 25.6792 67.7344C24.7399 67.7344 23.8391 67.3612 23.1749 66.6971C22.5107 66.0329 22.1376 65.132 22.1376 64.1927C22.1376 63.2534 22.5107 62.3526 23.1749 61.6884C23.8391 61.0242 24.7399 60.651 25.6792 60.651C26.6185 60.651 27.5194 61.0242 28.1836 61.6884C28.8478 62.3526 29.2209 63.2534 29.2209 64.1927ZM17.7105 61.0938C17.7105 62.0331 17.3373 62.9339 16.6732 63.5981C16.009 64.2623 15.1081 64.6354 14.1688 64.6354C13.2295 64.6354 12.3287 64.2623 11.6645 63.5981C11.0003 62.9339 10.6272 62.0331 10.6272 61.0938C10.6272 60.1544 11.0003 59.2536 11.6645 58.5894C12.3287 57.9252 13.2295 57.5521 14.1688 57.5521C15.1081 57.5521 16.009 57.9252 16.6732 58.5894C17.3373 59.2536 17.7105 60.1544 17.7105 61.0938Z" fill="#754BA1"/>
</svg>
