<svg width="86" height="86" viewBox="0 0 86 86" fill="none" xmlns="http://www.w3.org/2000/svg">
<path d="M17.9167 46.5833V78.8333H10.75V46.5833H17.9167ZM82.4167 46.5833V53.75H75.25V78.8333H68.0833V53.75H60.9167V46.5833H82.4167ZM43 39.4167C48.0207 39.444 52.9344 40.8697 57.19 43.5339L62.3751 38.3381C56.6866 34.3846 49.9274 32.2607 43 32.25C36.1655 32.2628 29.4979 34.3632 23.8901 38.27L29.0823 43.4766C33.2512 40.8497 38.0726 39.4432 43 39.4167Z" fill="#754BA1"/>
<path d="M43.0002 25.0834C51.8233 25.1032 60.4071 27.9544 67.4887 33.2175L72.6021 28.0934C64.1379 21.5093 53.7235 17.929 43.0002 17.9167C32.3696 17.9294 22.047 21.4879 13.667 28.0289L18.7768 33.153C25.7745 27.9304 34.2684 25.1008 43.0002 25.0834Z" fill="#754BA1"/>
<path d="M42.9999 10.75C55.6243 10.7516 67.87 15.0623 77.7117 22.9691L82.8251 17.8486C71.6516 8.63712 57.6244 3.5945 43.1434 3.58339C28.6625 3.57228 14.6276 8.59337 3.43994 17.7876L8.55336 22.9082C18.3124 15.0446 30.467 10.7545 42.9999 10.75ZM42.9999 46.5833C39.8107 46.5833 36.6931 47.529 34.0414 49.3009C31.3896 51.0727 29.3228 53.5911 28.1024 56.5375C26.8819 59.484 26.5626 62.7262 27.1848 65.8541C27.807 68.9821 29.3427 71.8553 31.5978 74.1104C33.853 76.3655 36.7262 77.9013 39.8541 78.5235C42.9821 79.1457 46.2243 78.8263 49.1707 77.6059C52.1172 76.3854 54.6356 74.3186 56.4074 71.6669C58.1792 69.0151 59.1249 65.8975 59.1249 62.7083C59.1249 58.4317 57.4261 54.3302 54.402 51.3062C51.378 48.2822 47.2766 46.5833 42.9999 46.5833ZM42.9999 71.6666C41.2281 71.6666 39.4961 71.1413 38.023 70.1569C36.5498 69.1725 35.4016 67.7734 34.7235 66.1365C34.0455 64.4996 33.8681 62.6984 34.2137 60.9606C34.5594 59.2229 35.4126 57.6267 36.6654 56.3738C37.9183 55.121 39.5145 54.2678 41.2523 53.9221C42.99 53.5765 44.7912 53.7539 46.4281 54.4319C48.0651 55.1099 49.4642 56.2581 50.4485 57.7313C51.4329 59.2045 51.9583 60.9365 51.9583 62.7083C51.9583 65.0842 51.0145 67.3628 49.3344 69.0428C47.6544 70.7228 45.3758 71.6666 42.9999 71.6666Z" fill="#754BA1"/>
</svg>
