<svg width="77" height="77" viewBox="0 0 77 77" fill="none" xmlns="http://www.w3.org/2000/svg">
<path d="M68.75 46.75C73.2985 46.75 77 43.0485 77 38.5C77 33.9515 73.2985 30.25 68.75 30.25C67.0493 30.2551 65.3919 30.7865 64.0053 31.7712C62.6187 32.756 61.571 34.1459 61.006 35.75H45.1385L65.2135 15.675C66.2915 16.1892 67.4795 16.5 68.75 16.5C73.2985 16.5 77 12.7985 77 8.25C77 3.7015 73.2985 0 68.75 0C64.2015 0 60.5 3.7015 60.5 8.25C60.5 9.5205 60.8135 10.7085 61.325 11.7837L38.5 34.6115V16.5C38.5 13.4695 40.9668 11 44 11H49.5V5.5H44C40.7 5.5 37.7685 6.99325 35.75 9.3005C34.7271 8.11334 33.4612 7.15968 32.0379 6.50401C30.6146 5.84834 29.0671 5.50595 27.5 5.5H24.75C11.1045 5.5 0 16.6018 0 30.25V46.75C0 60.3983 11.1045 71.5 24.75 71.5H27.5C30.8 71.5 33.7315 70.0095 35.75 67.6995C37.7685 70.0095 40.7 71.5 44 71.5H49.5V66H44C40.9668 66 38.5 63.5332 38.5 60.5V42.3885L61.325 65.2162C60.8107 66.2915 60.5 67.4795 60.5 68.75C60.5 73.3012 64.2015 77 68.75 77C73.2985 77 77 73.3012 77 68.75C77 64.1988 73.2985 60.5 68.75 60.5C67.5248 60.5065 66.3169 60.7894 65.2162 61.3278L45.1385 41.2527H61.006C61.5715 42.8563 62.6194 44.2456 64.0059 45.2299C65.3924 46.2141 67.0496 46.7452 68.75 46.75ZM68.75 35.75C69.4793 35.75 70.1788 36.0397 70.6945 36.5555C71.2103 37.0712 71.5 37.7707 71.5 38.5C71.5 39.2293 71.2103 39.9288 70.6945 40.4445C70.1788 40.9603 69.4793 41.25 68.75 41.25C68.0207 41.25 67.3212 40.9603 66.8055 40.4445C66.2897 39.9288 66 39.2293 66 38.5C66 37.7707 66.2897 37.0712 66.8055 36.5555C67.3212 36.0397 68.0207 35.75 68.75 35.75ZM68.75 5.5C69.4581 5.53167 70.1266 5.83524 70.6165 6.3475C71.1063 6.85976 71.3797 7.54122 71.3797 8.25C71.3797 8.95878 71.1063 9.64024 70.6165 10.1525C70.1266 10.6648 69.4581 10.9683 68.75 11C68.0207 11 67.3212 10.7103 66.8055 10.1945C66.2897 9.67882 66 8.97935 66 8.25C66 7.52065 66.2897 6.82118 66.8055 6.30546C67.3212 5.78973 68.0207 5.5 68.75 5.5ZM33 27.5H27.5V33H33V44H27.5C22.9515 44 19.25 47.7015 19.25 52.25V57.75H24.75V52.25C24.75 51.5207 25.0397 50.8212 25.5555 50.3055C26.0712 49.7897 26.7707 49.5 27.5 49.5H33V60.5C33 63.5332 30.5333 66 27.5 66H24.75C15.07 66 7.062 58.8143 5.72 49.5H11V44H5.5V33H13.75C18.2985 33 22 29.2985 22 24.75V19.25H16.5V24.75C16.5 25.4793 16.2103 26.1788 15.6945 26.6945C15.1788 27.2103 14.4793 27.5 13.75 27.5H5.72C7.062 18.1857 15.07 11 24.75 11H27.5C30.5333 11 33 13.4695 33 16.5V27.5ZM71.5 68.75C71.4683 69.4581 71.1648 70.1266 70.6525 70.6165C70.1402 71.1063 69.4588 71.3797 68.75 71.3797C68.0412 71.3797 67.3598 71.1063 66.8475 70.6165C66.3352 70.1266 66.0317 69.4581 66 68.75C66 67.2347 67.2347 66 68.75 66C70.2653 66 71.5 67.2347 71.5 68.75Z" fill="#754BA1"/>
</svg>
