<svg width="16" height="14" viewBox="0 0 16 14" fill="none" xmlns="http://www.w3.org/2000/svg">
<path d="M5 0C5.53043 0 6.03914 0.210714 6.41421 0.585786C6.78929 0.960859 7 1.46957 7 2V8C7 11.13 5.35 13.193 2.243 13.97C2.11526 14.003 1.98227 14.0103 1.85167 13.9917C1.72107 13.973 1.59546 13.9287 1.48206 13.8613C1.36866 13.7939 1.26972 13.7047 1.19095 13.5989C1.11217 13.4931 1.05511 13.3727 1.02305 13.2447C0.99099 13.1168 0.984569 12.9837 1.00416 12.8533C1.02374 12.7228 1.06895 12.5975 1.13717 12.4846C1.20539 12.3717 1.29528 12.2734 1.40166 12.1954C1.50804 12.1173 1.62881 12.0611 1.757 12.03C3.984 11.473 5 10.203 5 8V7H2C1.49542 7.00016 1.00943 6.80959 0.639452 6.4665C0.269471 6.12341 0.0428433 5.65315 0.00500011 5.15L0 5V2C0 1.46957 0.210714 0.960859 0.585786 0.585786C0.960859 0.210714 1.46957 0 2 0H5ZM14 0C14.5304 0 15.0391 0.210714 15.4142 0.585786C15.7893 0.960859 16 1.46957 16 2V8C16 11.13 14.35 13.193 11.243 13.97C11.1153 14.003 10.9823 14.0103 10.8517 13.9917C10.7211 13.973 10.5955 13.9287 10.4821 13.8613C10.3687 13.7939 10.2697 13.7047 10.1909 13.5989C10.1122 13.4931 10.0551 13.3727 10.023 13.2447C9.99099 13.1168 9.98457 12.9837 10.0042 12.8533C10.0237 12.7228 10.0689 12.5975 10.1372 12.4846C10.2054 12.3717 10.2953 12.2734 10.4017 12.1954C10.508 12.1173 10.6288 12.0611 10.757 12.03C12.984 11.473 14 10.203 14 8V7H11C10.4954 7.00016 10.0094 6.80959 9.63945 6.4665C9.26947 6.12341 9.04284 5.65315 9.005 5.15L9 5V2C9 1.46957 9.21071 0.960859 9.58579 0.585786C9.96086 0.210714 10.4696 0 11 0H14Z" fill="black"/>
</svg>
