<svg width="62" height="78" viewBox="0 0 62 78" fill="none" xmlns="http://www.w3.org/2000/svg">
<path d="M31 77.5C22.0229 75.2396 14.6113 70.0884 8.76525 62.0465C2.91917 54.0046 -0.00258162 45.0766 1.71157e-06 35.2625V11.625L31 0L62 11.625V35.2625C62 45.0792 59.0783 54.0085 53.2348 62.0504C47.3913 70.0923 39.9797 75.2422 31 77.5ZM31 69.3625C37.2646 67.425 42.4958 63.5978 46.6937 57.8809C50.8917 52.164 53.3458 45.787 54.0563 38.75H31V8.23438L7.75 16.9531V37.0063C7.75 37.4583 7.81459 38.0396 7.94375 38.75H31V69.3625Z" fill="#754BA1"/>
</svg>
