<svg width="21" height="21" viewBox="0 0 21 21" fill="none" xmlns="http://www.w3.org/2000/svg">
<path d="M13.2941 18.8125C14.6353 14.4449 16.1173 12.8691 20 11.6875C16.1173 10.5059 14.6353 8.93012 13.2941 4.5625C11.9529 8.93012 10.4709 10.5059 6.58824 11.6875C10.4709 12.8691 11.9529 14.4449 13.2941 18.8125ZM4.35294 8.125C5.02353 5.94 5.76453 5.15269 7.70588 4.5625C5.76453 3.97231 5.02353 3.185 4.35294 1C3.68235 3.185 2.94135 3.97231 1 4.5625C2.94135 5.15269 3.68235 5.94 4.35294 8.125ZM6.02941 20C6.36471 18.9075 6.73465 18.5144 7.70588 18.2188C6.73465 17.9231 6.36471 17.53 6.02941 16.4375C5.69412 17.53 5.32418 17.9231 4.35294 18.2188C5.32418 18.5144 5.69412 18.9075 6.02941 20Z" stroke="white" stroke-width="2" stroke-linejoin="round"/>
</svg>
