<svg width="69" height="69" viewBox="0 0 69 69" fill="none" xmlns="http://www.w3.org/2000/svg">
<path d="M17.25 57.5C15.6687 57.5 14.3156 56.9374 13.1905 55.8123C12.0654 54.6873 11.5019 53.3331 11.5 51.75V46C11.5 45.1854 11.776 44.5031 12.328 43.953C12.88 43.4029 13.5623 43.1269 14.375 43.125C15.1877 43.1231 15.871 43.3991 16.4249 43.953C16.9788 44.5069 17.2538 45.1892 17.25 46V51.75H51.75V46C51.75 45.1854 52.026 44.5031 52.578 43.953C53.13 43.4029 53.8123 43.1269 54.625 43.125C55.4377 43.1231 56.121 43.3991 56.6749 43.953C57.2288 44.5069 57.5038 45.1892 57.5 46V51.75C57.5 53.3312 56.9375 54.6853 55.8124 55.8123C54.6873 56.9393 53.3332 57.5019 51.75 57.5H17.25ZM31.625 22.5687L26.2344 27.9593C25.6594 28.5343 24.977 28.8103 24.1874 28.7873C23.3977 28.7643 22.7144 28.4644 22.1375 27.8875C21.6104 27.3125 21.3344 26.6416 21.3095 25.875C21.2846 25.1083 21.5606 24.4375 22.1375 23.8625L32.4875 13.5125C32.775 13.225 33.0865 13.0218 33.4219 12.903C33.7573 12.7841 34.1167 12.7238 34.5 12.7218C34.8833 12.7199 35.2427 12.7803 35.5781 12.903C35.9135 13.0256 36.225 13.2288 36.5125 13.5125L46.8625 23.8625C47.4375 24.4375 47.7135 25.1083 47.6905 25.875C47.6675 26.6416 47.3915 27.3125 46.8625 27.8875C46.2875 28.4625 45.6052 28.7624 44.8155 28.7873C44.0258 28.8123 43.3425 28.5363 42.7656 27.9593L37.375 22.5687V43.125C37.375 43.9396 37.099 44.6228 36.547 45.1748C35.995 45.7268 35.3127 46.0019 34.5 46C33.6873 45.9981 33.005 45.7221 32.453 45.172C31.901 44.6219 31.625 43.9396 31.625 43.125V22.5687Z" fill="black" fill-opacity="0.4"/>
</svg>
